# xmcd CD database file
#
# Track frame offsets:
#	150
#	20106
#	47349
#	71161
#	95752
#	117258
#	148213
#	170576
#	187571
#
# Disc length: 2744 seconds
#
# Revision: 0
# Processed by: cddbd v1.5.2PL0 Copyright (c) Steve Scherf et al.
# Submitted via: CDex 1.51
#
DISCID=7d0ab609
DTITLE=The Rongetz FOUNDATION - Brooklyn Butterfly Session
DYEAR=2012
DGENRE=Jazz
TTITLE0=Gogo Soul
TTITLE1=Hard Bop Merry Go Round
TTITLE2=Eunice K
TTITLE3=Sam's Intro
TTITLE4=A Composer Of Modern Day
TTITLE5=Bolshoi Drunk Ghost
TTITLE6=The Braggart
TTITLE7=Freaking Sunshine
TTITLE8=Bolshoi Drunk Ghost (Radio Edit)
EXTD=YEAR: 2012
EXTT0=
EXTT1=
EXTT2=
EXTT3=
EXTT4=
EXTT5=
EXTT6=
EXTT7=
EXTT8=
PLAYORDER=
